<svg xmlns="http://www.w3.org/2000/svg" data-name="Layer 1" width="512" height="512"><path d="M343.169 304.5h-2.346a6 6 0 0 0 0 12h2.346a6 6 0 0 0 0-12ZM317.407 304.5h-17.729a6 6 0 0 0 0 12h17.729a6 6 0 0 0 0-12ZM275.883 304.5H178.8a6 6 0 0 0 0 12h97.086a6 6 0 1 0 0-12ZM343.169 344.5h-2.346a6 6 0 0 0 0 12h2.346a6 6 0 0 0 0-12ZM317.407 344.5h-17.729a6 6 0 0 0 0 12h17.729a6 6 0 0 0 0-12ZM275.883 344.5H178.8a6 6 0 0 0 0 12h97.086a6 6 0 1 0 0-12ZM343.169 224.5h-2.346a6 6 0 0 0 0 12h2.346a6 6 0 0 0 0-12ZM317.407 224.5h-17.729a6 6 0 0 0 0 12h17.729a6 6 0 0 0 0-12ZM343.169 264.5h-2.346a6 6 0 0 0 0 12h2.346a6 6 0 0 0 0-12ZM317.407 264.5h-17.729a6 6 0 0 0 0 12h17.729a6 6 0 0 0 0-12ZM275.883 264.5H178.8a6 6 0 0 0 0 12h97.086a6 6 0 1 0 0-12ZM343.169 144.5h-2.346a6 6 0 0 0 0 12h2.346a6 6 0 0 0 0-12ZM317.407 144.5h-17.729a6 6 0 0 0 0 12h17.729a6 6 0 0 0 0-12ZM343.169 184.5h-2.346a6 6 0 0 0 0 12h2.346a6 6 0 0 0 0-12ZM317.407 184.5h-17.729a6 6 0 0 0 0 12h17.729a6 6 0 0 0 0-12ZM171.215 172.763c0-33.392-27.841-60.559-62.062-60.559S47.09 139.371 47.09 172.763s27.841 60.559 62.063 60.559 62.062-27.166 62.062-60.559Zm-112.125 0c0-26.775 22.458-48.559 50.063-48.559s50.062 21.784 50.062 48.559-22.458 48.559-50.062 48.559-50.063-21.783-50.063-48.559Z"/><path d="M125.785 207.965a6 6 0 0 0 8.705-6.325l-3.176-18.52L144.77 170a6 6 0 0 0-3.326-10.233l-18.595-2.7-8.316-16.85a6 6 0 0 0-10.761 0l-8.316 16.85-18.595 2.7A6 6 0 0 0 73.535 170l13.456 13.12-3.176 18.52a6 6 0 0 0 8.706 6.325l16.632-8.744ZM97.7 191.686l1.655-9.647a6 6 0 0 0-1.726-5.31l-7.012-6.829 9.686-1.407a6 6 0 0 0 4.518-3.282l4.332-8.777 4.331 8.777a6 6 0 0 0 4.516 3.278l9.686 1.407-7.009 6.833a6 6 0 0 0-1.726 5.31l1.655 9.647-8.663-4.555a5.994 5.994 0 0 0-5.584 0Z"/><path d="M435.747 30.525h-.223l-289.106-.939h-.23a53.26 53.26 0 0 0-53.194 52.975l-.028 7.773c-39.754 7.408-69.9 41.541-69.9 82.429 0 28.108 14.258 53.014 36.075 68.256v120a6.163 6.163 0 0 0 1.506 4.139 6.01 6.01 0 0 0 7.534 1.191l23.847-14.012-.1 42.292a6 6 0 0 0-2.235.655l-27.852 14.63-27.716-14.56a6.163 6.163 0 0 0-4.238-.619A6.011 6.011 0 0 0 25.2 400.6v24.176a57.644 57.644 0 0 0 57.644 57.644h248.864a61.442 61.442 0 0 0 61.331-61.129l.437-138.267a6 6 0 0 0-6-6.019 6 6 0 0 0-6 5.981l-.437 138.266a49.418 49.418 0 0 1-50.434 49.148c-26.949-.594-48.227-23.2-48.227-50.154v-19.428a6.267 6.267 0 0 0-1.644-4.354 6.007 6.007 0 0 0-7.146-1.181l-27.863 14.631-27.863-14.631a6 6 0 0 0-5.579 0l-27.858 14.631-27.857-14.631a6 6 0 0 0-5.58 0l-27.857 14.631-19.214-10.092.128-54.547 5.108-3 40.971 24.074a6.011 6.011 0 0 0 7.526-1.18 6.164 6.164 0 0 0 1.514-4.151v-120A86.237 86.237 0 0 0 173 228.962a5.7 5.7 0 0 0 0 3.038 6.367 6.367 0 0 0 6.2 4.5h96.43a6.167 6.167 0 0 0 6.249-5.815 6 6 0 0 0-6-6.185H178.8a5.977 5.977 0 0 0-2.309.462 83.057 83.057 0 0 0 15.23-28.462h83.91a6.167 6.167 0 0 0 6.249-5.815 6 6 0 0 0-6-6.185h-81.491a81.57 81.57 0 0 0-.786-28h82.028a6.167 6.167 0 0 0 6.249-5.815 6 6 0 0 0-6-6.185H190.2c-11.927-32.418-43.751-55.675-81.051-55.675-1.4 0-2.8.039-4.181.1l.022-6.322a41.244 41.244 0 0 1 41.2-41.022h.178l255.6.83a53.334 53.334 0 0 0-19.865 41.3l-.5 159.263a6 6 0 0 0 6 6.019 6 6 0 0 0 6-5.981l.33-104.465 8.875 7.531a6 6 0 0 0 7.765 0l15.085-12.8 15.082 12.8a6 6 0 0 0 7.766 0l15.08-12.8 14.9 12.653a6.234 6.234 0 0 0 5.292 1.447 6.006 6.006 0 0 0 4.764-5.834l.39-57.385a53.475 53.475 0 0 0-53.185-53.634ZM80.7 345.072l-9.562 5.618V248.05a86.622 86.622 0 0 0 9.562 3.919ZM120.341 422a6 6 0 0 0 5.58 0l27.857-14.631L181.635 422a6.007 6.007 0 0 0 5.579 0l27.859-14.631L242.936 422a6 6 0 0 0 5.579 0l21.863-11.481v10.562a61.283 61.283 0 0 0 24.928 49.331H82.843A45.7 45.7 0 0 1 37.2 424.771v-14.247L59.051 422a6 6 0 0 0 5.58 0l27.853-14.631Zm5.261-83.981-13.41-7.88a6 6 0 0 0-6.079 0l-13.41 7.88v-82.873a87.783 87.783 0 0 0 32.9 0Zm21.562 12.668-9.562-5.618v-93.1a86.622 86.622 0 0 0 9.562-3.919Zm-38.011-249.862c40.851 0 74.086 32.271 74.086 71.938S150 244.7 109.153 244.7s-74.087-32.27-74.087-71.937 33.234-71.938 74.087-71.938Zm367.478 27.794-9.162-7.779a6 6 0 0 0-7.766 0l-15.081 12.8-15.082-12.8a6 6 0 0 0-7.765 0l-15.085 12.8-12.708-10.785.124-39.095a41.46 41.46 0 0 1 41.411-41.238h.179A41.458 41.458 0 0 1 476.933 84.1Z"/></svg>