<svg width="18" height="18" fill="none" xmlns="http://www.w3.org/2000/svg"><path d="M9 .531A8.717 8.717 0 0 0 .281 9.25 8.717 8.717 0 0 0 9 17.969a8.717 8.717 0 0 0 8.719-8.719A8.717 8.717 0 0 0 9 .531Zm0 15.75A7.007 7.007 0 0 1 1.969 9.25 7.03 7.03 0 0 1 9 2.219c3.867 0 7.031 3.164 7.031 7.031A7.03 7.03 0 0 1 9 16.281Zm2.145-3.656c.21.14.457.105.597-.105l.668-.88c.14-.21.106-.456-.105-.597L9.985 9.32V4.328c0-.21-.212-.422-.422-.422H8.437a.427.427 0 0 0-.421.422v5.8c0 .106.035.247.14.317l2.989 2.18Z" fill="#B89B5E"/></svg>