<svg id="Layer_1" height="512" viewBox="0 0 512 512" width="512" xmlns="http://www.w3.org/2000/svg" data-name="Layer 1"><path d="m256 98.02a15.526 15.526 0 1 0 15 15.517 15.282 15.282 0 0 0 -15-15.517zm0 19.035a3.562 3.562 0 1 1 3-3.518 3.294 3.294 0 0 1 -3 3.518z"/><path d="m317.79 106.347h-13.032a49.124 49.124 0 0 0 -97.516 0h-13.032a6 6 0 0 0 0 12h13.032a49.124 49.124 0 0 0 97.516 0h13.032a6 6 0 0 0 0-12zm-61.79 43.137a37.138 37.138 0 1 1 37.137-37.137 37.178 37.178 0 0 1 -37.137 37.137z"/><path d="m141.507 249.444a6 6 0 0 0 6-6v-3.6a6 6 0 0 0 -12 0v3.6a6 6 0 0 0 6 6z"/><path d="m147.507 346.029v-82.507a6 6 0 0 0 -12 0v82.507a6 6 0 0 0 12 0z"/><path d="m487.5 430.028h-9v-28a6 6 0 0 0 -6-6h-17.819v-8.7a5.992 5.992 0 0 0 -.634-2.683l-6.791-13.582a6 6 0 0 0 -5.366-3.317h-5.72l-3.118-150.414a26.364 26.364 0 0 0 42.855-21.3 25.759 25.759 0 0 0 -4.688-14.08h12.016a6 6 0 0 0 6-6.07l-.469-40.266a6 6 0 0 0 -3.687-5.467l-226.766-94.7a6 6 0 0 0 -4.62 0l-227.235 94.7a6 6 0 0 0 -3.691 5.608l.469 40.265a6 6 0 0 0 6 5.931h11.4a26.381 26.381 0 0 0 20.148 41.137c.569.035 1.134.053 1.7.053a26.074 26.074 0 0 0 16.466-5.8l-3.118 150.4h-5.722a6 6 0 0 0 -5.366 3.317l-6.791 13.582a5.992 5.992 0 0 0 -.634 2.683v8.7h-17.819a6 6 0 0 0 -6 6v28h-9a6 6 0 0 0 -6 6v34.987a6 6 0 0 0 6 6h463a6 6 0 0 0 6-6v-34.984a6 6 0 0 0 -6-6zm-49.318-50.28 4.5 9v7.281h-61.469v-7.281l4.5-9zm-140.081 4.9-6.791-13.582a6 6 0 0 0 -5.367-3.317h-5.719l-3.119-150.414a26.364 26.364 0 0 0 42.855-21.3 25.751 25.751 0 0 0 -4.688-14.08h37.253a26.38 26.38 0 0 0 20.152 41.138q.853.052 1.7.053a26.074 26.074 0 0 0 16.466-5.8l-3.119 150.4h-5.724a6 6 0 0 0 -5.367 3.317l-6.791 13.582a5.991 5.991 0 0 0 -.633 2.683v8.7h-70.475v-8.7a6 6 0 0 0 -.634-2.681zm-155.947 0-6.791-13.582a6 6 0 0 0 -5.363-3.318h-5.719l-3.119-150.414a26.365 26.365 0 0 0 42.856-21.3 25.759 25.759 0 0 0 -4.689-14.08h37.253a26.381 26.381 0 0 0 20.153 41.138q.852.052 1.7.053a26.074 26.074 0 0 0 16.466-5.8l-3.119 150.4h-5.719a6 6 0 0 0 -5.367 3.317l-6.796 13.585a6 6 0 0 0 -.633 2.683v8.7h-70.48v-8.7a5.991 5.991 0 0 0 -.633-2.683zm96.621-193.878a6 6 0 0 0 -6 6 14.374 14.374 0 0 1 -15.3 14.343 14.531 14.531 0 0 1 -13.416-13.413 14.375 14.375 0 0 1 14.341-15.3h74.772a14.689 14.689 0 0 1 14.791 13.965 14.373 14.373 0 1 1 -28.74.409 6 6 0 0 0 -6-6zm29.446 176.978h-24.442l3.421-164.978h17.6zm-42.955 21 4.5-9h52.47l4.5 9v7.281h-61.47zm174.46-21 3.42-164.978h17.6l3.421 164.978zm60.121-160.957a14.373 14.373 0 0 1 -24.675-10.021 6 6 0 0 0 -6-6h-34.45a6 6 0 0 0 -6 6 14.375 14.375 0 0 1 -15.3 14.343 14.533 14.533 0 0 1 -13.417-13.413 14.375 14.375 0 0 1 14.344-15.3h74.772a14.69 14.69 0 0 1 14.791 13.965 14.275 14.275 0 0 1 -4.065 10.426zm-424.682-36.839-.353-30.286 221.188-92.18 220.812 92.214.352 30.25zm41.663 26.818a14.374 14.374 0 0 1 -15.3 14.343 14.531 14.531 0 0 1 -13.416-13.413 14.375 14.375 0 0 1 14.344-15.3h74.771a14.689 14.689 0 0 1 14.791 13.965 14.373 14.373 0 1 1 -28.74.409 6 6 0 0 0 -6-6h-34.45a6 6 0 0 0 -6 5.996zm35.446 170.978h-24.442l3.421-164.978h17.6zm-42.955 21 4.5-9h52.47l4.5 9v7.281h-61.47zm412.181 76.267h-451v-22.987h61.5a6 6 0 0 0 6-6 6 6 0 0 0 -6-6h-46.5v-22h421v22h-334.5a6 6 0 0 0 -6 6 6 6 0 0 0 6 6h349.5z"/></svg>