<svg height="512" width="512" xmlns="http://www.w3.org/2000/svg" data-name="Layer 1"><path d="M127.15 468.825a16.191 16.191 0 0 0 2.783.242 16.007 16.007 0 0 0 15.728-13.256l64.754-371.468a16.019 16.019 0 0 0-13.015-18.51l-93.863-16.362a16 16 0 0 0-18.51 13.015L20.273 433.953a16 16 0 0 0 13.014 18.51zM32.763 439a3.967 3.967 0 0 1-.668-2.987L96.849 64.546a4 4 0 0 1 3.932-3.314 4.1 4.1 0 0 1 .7.06l93.862 16.363a4.005 4.005 0 0 1 3.254 4.628L133.838 453.75a4 4 0 0 1-4.627 3.25l-93.863-16.358A3.975 3.975 0 0 1 32.763 439z"/><path d="M88.794 411.452a31.618 31.618 0 1 0-25.718-36.577 31.672 31.672 0 0 0 25.718 36.577zM74.9 376.936a19.631 19.631 0 0 1 19.285-16.254 19.8 19.8 0 0 1 3.41.3A19.617 19.617 0 1 1 74.9 376.936zM75.072 303.707l63.092 11a5.993 5.993 0 0 0 6.94-4.881L175.9 133.167a6 6 0 0 0-4.88-6.941l-63.092-11a6 6 0 0 0-6.941 4.88l-30.796 176.66a6 6 0 0 0 4.881 6.941zm36.705-175.627 51.27 8.937-28.734 164.836-51.27-8.937z"/><path d="m130.1 249.11-25.237-4.4a6 6 0 1 0-2.06 11.821l25.237 4.4a6 6 0 0 0 2.06-11.822zM109.4 218.677l25.237 4.4a6 6 0 0 0 2.06-11.822l-25.236-4.4a6 6 0 0 0-2.061 11.821zM116 180.822l25.236 4.4a6 6 0 1 0 2.061-11.821L118.056 169A6 6 0 1 0 116 180.822zM228.868 463.683h95.278a16.019 16.019 0 0 0 16-16V58.935a16.019 16.019 0 0 0-16-16h-95.278a16.018 16.018 0 0 0-16 16v388.748a16.018 16.018 0 0 0 16 16zm-4-404.748a4 4 0 0 1 4-4h95.278a4 4 0 0 1 4 4v388.748a4 4 0 0 1-4 4h-95.278a4 4 0 0 1-4-4z"/><path d="M276.507 350.514a31.618 31.618 0 1 0 31.618 31.617 31.653 31.653 0 0 0-31.618-31.617zm0 51.235a19.618 19.618 0 1 1 19.618-19.618 19.639 19.639 0 0 1-19.618 19.618zM289.316 246.726H263.7a6 6 0 0 0 0 12h25.618a6 6 0 0 0 0-12zM289.316 208.3H263.7a6 6 0 0 0 0 12h25.618a6 6 0 0 0 0-12zM289.316 169.874H263.7a6 6 0 0 0 0 12h25.618a6 6 0 0 0 0-12zM475.967 42.935h-95.279a16.019 16.019 0 0 0-16 16v388.748a16.019 16.019 0 0 0 16 16h95.279a16.019 16.019 0 0 0 16-16V58.935a16.019 16.019 0 0 0-16-16zm4 404.748a4 4 0 0 1-4 4h-95.279a4 4 0 0 1-4-4V58.935a4 4 0 0 1 4-4h95.279a4 4 0 0 1 4 4z"/><path d="M428.328 350.514a31.618 31.618 0 1 0 31.617 31.617 31.654 31.654 0 0 0-31.617-31.617zm0 51.235a19.618 19.618 0 1 1 19.617-19.618 19.64 19.64 0 0 1-19.617 19.618zM460.35 118.639h-64.044a6 6 0 0 0-6 6v179.322a6 6 0 0 0 6 6h64.044a6 6 0 0 0 6-6V124.639a6 6 0 0 0-6-6zm-6 179.322h-52.044V130.639h52.044z"/><path d="M415.519 258.726h25.617a6 6 0 1 0 0-12h-25.617a6 6 0 0 0 0 12zM415.519 220.3h25.617a6 6 0 0 0 0-12h-25.617a6 6 0 0 0 0 12zM415.519 181.874h25.617a6 6 0 0 0 0-12h-25.617a6 6 0 0 0 0 12zM308.529 118.639h-64.044a6 6 0 0 0-6 6V142a6 6 0 0 0 6 6 6 6 0 0 0 6-6v-11.361h52.044v167.322h-52.044V182a6 6 0 0 0-6-6 6 6 0 0 0-6 6v121.961a6 6 0 0 0 6 6h64.044a6 6 0 0 0 6-6V124.639a6 6 0 0 0-6-6z"/></svg>