<svg height="512" width="512" xmlns="http://www.w3.org/2000/svg" data-name="Layer 1"><path d="M126.507 393.841v3.6a6 6 0 0 0 12 0v-3.6a6 6 0 0 0-12 0zM132.507 411.522a6 6 0 0 0-6 6v62.507a6 6 0 0 0 12 0v-62.507a6 6 0 0 0-6-6z"/><path d="M420.068 5.27a6 6 0 0 0-6-.44l-80.841 39.206a6 6 0 0 0-2.883 3l-15.083 34.636-18-12.484a6 6 0 0 0-7.3.352c-28.342 24.015-49.455 56.329-61.058 93.448a226.143 226.143 0 0 0-5.721 111.019l-26.271 39.7h-56.782a6.738 6.738 0 0 0-6.73 6.73v31.364a45.418 45.418 0 0 0-44.088 45.341v104.63a6 6 0 0 0 6 6h189.474a6 6 0 0 0 6-6V397.146a45.418 45.418 0 0 0-44.085-45.341v-31.364a6.738 6.738 0 0 0-6.73-6.73h-10.379l14.9-22.512c93.366-18.258 163.63-96.377 171.246-190.846l6.938-89.662a6 6 0 0 0-2.607-5.421zM278.785 466.047h-76.62v-57.276h76.62zM234.7 325.711v26.061H189a6 6 0 0 0-6 6 6 6 0 0 0 6 6h56.411a33.407 33.407 0 0 1 33.364 33h-82.61a6 6 0 0 0-6 6v69.276a6 6 0 0 0 6 6h82.62v17.725H101.311v-98.627a33.374 33.374 0 0 1 33.374-33.374H149a6 6 0 0 0 6-6 6 6 0 0 0-6-6h-3.6v-26.061zm-19.5-12h-3.894L372.122 70.665a1.627 1.627 0 0 1 2.255-.46 1.629 1.629 0 0 1 .464 2.252zm188.57-214.3c-6.857 85.042-67.578 156.052-149.707 177.319L384.851 79.074a13.628 13.628 0 0 0-22.74-15.026L232.9 259.328a213.358 213.358 0 0 1 7.461-92.76c10.444-33.411 29.035-62.655 53.9-84.86L314.424 95.7a6 6 0 0 0 8.922-2.534l17.113-39.3L409.9 20.188z"/></svg>