<svg height="512" width="512" xmlns="http://www.w3.org/2000/svg" data-name="Layer 1"><path d="M251.609 422.219a5.966 5.966 0 0 0 2.684-.638l47.736-23.938a6 6 0 1 0-5.379-10.726l-47.735 23.937a6 6 0 0 0 2.694 11.365zM299.34 364.533a6 6 0 0 0 2.021-11.651L242.717 331.9a6 6 0 1 0-4.042 11.3l58.644 20.98a5.988 5.988 0 0 0 2.021.353zM417.846 282.607a6 6 0 0 0 8.343 1.546l46.294-31.819a6 6 0 0 0-6.8-9.89l-46.293 31.82a6 6 0 0 0-1.544 8.343zM427.788 312a6 6 0 0 0 4.91 6.92l50.763 8.623a5.93 5.93 0 0 0 1.013.086 6 6 0 0 0 1-11.916l-50.763-8.623a6 6 0 0 0-6.923 4.91zM112.992 295.2a5.971 5.971 0 0 0 3.632-1.228l60.906-46.4a6 6 0 0 0-7.273-9.545l-60.9 46.4a6 6 0 0 0 3.64 10.773zM190.96 235.8a5.982 5.982 0 0 0 3.633-1.228l5.163-3.935a6 6 0 0 0-7.273-9.545l-5.164 3.935a6 6 0 0 0 3.641 10.773zM496.616 454.564h-26v-14a16.019 16.019 0 0 0-16-16h-160a16.018 16.018 0 0 0-16 16v14h-26a6 6 0 0 0-6 6v28a6 6 0 0 0 6 6h244a6 6 0 0 0 6-6v-28a6 6 0 0 0-6-6zm-206-14a4 4 0 0 1 4-4h160a4.005 4.005 0 0 1 4 4v14h-168zm200 42h-232v-16h232z"/><path d="m421.159 216.319-17.926-24.056a16.019 16.019 0 0 0-22.39-3.263l-3.207 2.39L289.2 72.711l3.207-2.39a16 16 0 0 0 3.268-22.389l-17.924-24.056a16 16 0 0 0-22.389-3.269L143.1 104.261a16.019 16.019 0 0 0-3.269 22.39l17.926 24.056a16.016 16.016 0 0 0 22.39 3.269l3.207-2.391 22.692 30.451L23.977 316.724A36 36 0 0 0 66.8 374.607l182.271-134.838 22.721 30.489-3.208 2.39a16 16 0 0 0-3.269 22.391l17.926 24.055a15.9 15.9 0 0 0 10.518 6.272 16.291 16.291 0 0 0 2.345.171 15.883 15.883 0 0 0 9.527-3.174l112.259-83.654a16 16 0 0 0 3.269-22.39zM59.659 364.96a24 24 0 0 1-28.546-38.589l30.122-22.282 28.682 38.488zm39.9-29.519-28.677-38.489L213.22 191.658l28.68 38.488zm93.416-191.026 51.528-38.4a6 6 0 0 0 .657-9.054 6 6 0 0 0-7.827-.568l-64.353 47.96a4 4 0 0 1-5.6-.817l-17.925-24.055a4 4 0 0 1 .816-5.6l112.261-83.652a4 4 0 0 1 5.6.817L286.055 55.1a3.985 3.985 0 0 1 .643 3.479 4.209 4.209 0 0 1-1.586 2.212L269.751 72.24a6 6 0 0 0-.658 9.054 6 6 0 0 0 7.828.569l2.658-1.981 88.435 118.673-86.6 64.533zm219.308 82.043a3.973 3.973 0 0 1-1.567 2.629l-112.255 83.654a4 4 0 0 1-5.6-.817l-17.925-24.055a4 4 0 0 1 .816-5.6l112.259-83.654a4 4 0 0 1 5.6.817l17.926 24.056a3.971 3.971 0 0 1 .75 2.97z"/></svg>