<svg id="Layer_1" height="512" viewBox="0 0 512 512" width="512" xmlns="http://www.w3.org/2000/svg" data-name="Layer 1"><path d="m245.422 400.177a6 6 0 1 0 1.908 11.847 54.693 54.693 0 0 1 8.67-.688 6 6 0 0 0 0-12 66.775 66.775 0 0 0 -10.578.841z"/><path d="m494.265 313.1h-1.458l-68.8-165.5h27.284a25.055 25.055 0 1 0 -.57-35.591h-111.83a26.848 26.848 0 0 0 -20.161-9.114h-44.93v-41.065a25.057 25.057 0 1 0 -35.59 0v41.056h-44.94a26.848 26.848 0 0 0 -20.161 9.114h-111.83a25.059 25.059 0 1 0 -.57 35.591h27.284l-68.8 165.5h-1.458a6 6 0 0 0 -6 6c0 43.494 37.948 78.879 84.592 78.879s84.591-35.385 84.591-78.879a6 6 0 0 0 -6-6h-1.457l-68.8-165.5h68.45a26.843 26.843 0 0 0 20.16 9.115h44.935v222.467c-30.584 6.372-54.519 28.773-59.248 56.828h-2.295a34.9 34.9 0 0 0 -34.863 34.861v15.985a6 6 0 0 0 6 6h216.4a6 6 0 0 0 6-6v-15.985a34.9 34.9 0 0 0 -34.862-34.862h-2.3c-4.729-28.059-28.657-50.459-59.246-56.829v-222.465h44.938a26.843 26.843 0 0 0 20.16-9.115h68.45l-68.8 165.5h-1.457a6 6 0 0 0 -6 6c0 43.494 37.947 78.879 84.591 78.879s84.592-35.385 84.592-78.879a6 6 0 0 0 -6.001-5.991zm-25.649-196.642a13.057 13.057 0 1 1 -13.056 13.057 13.072 13.072 0 0 1 13.056-13.057zm-425.232 26.114a13.057 13.057 0 1 1 13.056-13.057 13.072 13.072 0 0 1 -13.056 13.057zm52.943 243.4c-29.773 0-55.406-16.6-66.591-40.281h133.181c-11.185 23.681-36.817 40.283-66.59 40.283zm70.834-52.281h-141.669a61.674 61.674 0 0 1 -1.468-8.6h144.6a61.674 61.674 0 0 1 -1.463 8.602zm-6.7-20.6h-128.273l64.139-154.285zm-92.774-177.5a24.97 24.97 0 0 0 .135-11.591h99.178a26.765 26.765 0 0 0 0 11.591zm188.313-104.438a13.057 13.057 0 1 1 -13.057 13.057 13.071 13.071 0 0 1 13.057-13.057zm5.8 37.43v34.3h-11.59v-34.3a24.89 24.89 0 0 0 11.59 0zm59.034 367.417h-12.834a6 6 0 0 0 -6 6 6 6 0 0 0 6 6h27.338a22.861 22.861 0 0 1 22.862 22.862v9.985h-204.4v-9.985a22.861 22.861 0 0 1 22.862-22.862h91.338a6 6 0 0 0 6-6 6 6 0 0 0 -6-6h-54.013c.043-.093.1-.179.136-.276 2.694-6.73 7.852-12.6 14.929-16.992a6.193 6.193 0 0 0 2.341-8.191 6 6 0 0 0 -8.37-2.189c-9.419 5.767-16.349 13.69-20.04 22.913a5.976 5.976 0 0 0 .124 4.735h-11.944c5.609-26.63 32.756-46.665 64.837-46.665s59.227 20.033 64.834 46.665zm-70.629-58.455v-220.839h11.595v220.84c-1.916-.126-3.845-.21-5.8-.21s-3.879.084-5.795.21zm68.525-232.84h-125.46a14.91 14.91 0 0 1 0-29.82h125.46a14.91 14.91 0 0 1 0 29.82zm26.27-9.114a26.765 26.765 0 0 0 0-11.591h99.174a24.97 24.97 0 0 0 .131 11.591zm70.669 23.215 64.143 154.294h-128.277zm0 227.168c-29.772 0-55.405-16.6-66.59-40.281h133.185c-11.185 23.679-36.818 40.281-66.591 40.281zm70.835-52.281h-141.665a61.674 61.674 0 0 1 -1.468-8.6h144.605a61.674 61.674 0 0 1 -1.468 8.6z"/></svg>