<svg width="18" height="14" fill="none" xmlns="http://www.w3.org/2000/svg"><path d="M17.648 4.965c-.808.633-1.828 1.406-5.414 4.008C11.531 9.5 10.23 10.66 9 10.66c-1.266 0-2.531-1.16-3.27-1.687C2.145 6.37 1.125 5.598.316 4.965c-.14-.106-.316 0-.316.176v7.171C0 13.262.738 14 1.688 14h14.624c.915 0 1.688-.738 1.688-1.688V5.141c0-.176-.21-.282-.352-.176ZM9 9.5c.809.035 1.969-1.02 2.566-1.441 4.676-3.375 5.028-3.692 6.082-4.536A.8.8 0 0 0 18 2.855v-.667C18 1.272 17.227.5 16.312.5H1.688C.739.5 0 1.273 0 2.188v.667c0 .282.105.528.316.668 1.055.844 1.407 1.16 6.082 4.536C6.996 8.48 8.156 9.535 9 9.5Z" fill="#B89B5E"/></svg>