<svg height="512" width="512" xmlns="http://www.w3.org/2000/svg" data-name="Layer 1"><path d="M416 243.217H299a6 6 0 0 0 0 12h117a6 6 0 0 0 0-12zM416 193.217h-48.76a6 6 0 0 0 0 12H416a6 6 0 0 0 0-12zM299 205.217h38a6 6 0 0 0 0-12h-38a6 6 0 0 0 0 12zM416 133.217h-18.637a6 6 0 0 0 0 12H416a6 6 0 0 0 0-12zM299 145.217h69.614a6 6 0 0 0 0-12H299a6 6 0 0 0 0 12zM363 293.217h-21.07a6 6 0 1 0 0 12H363a6 6 0 0 0 0-12zM313.632 293.217H299a6 6 0 0 0 0 12h14.632a6 6 0 0 0 0-12zM77.019 130.971a6 6 0 0 0-6 6v96.456a6 6 0 1 0 12 0v-96.456a6 6 0 0 0-6-6zM78.019 103.722a6 6 0 0 0-6 6v6.558a6 6 0 0 0 12 0v-6.558a6 6 0 0 0-6-6zM278.536 211.148l-24.561-49.416a6 6 0 0 0-1.431-11.821h-43.4A13.7 13.7 0 0 0 197.255 143h-22.51a13.7 13.7 0 0 0-11.884 6.911h-43.8a6 6 0 0 0-1.074 11.9l-24.523 49.337a6 6 0 0 0-4.344 5.763c0 19.488 16.886 35.342 37.643 35.342s37.642-15.854 37.642-35.342a6 6 0 0 0-4.344-5.763l-24.473-49.237h26.491a13.719 13.719 0 0 0 12.666 8.491H180v73.983c-12.287 2.08-22.259 10.421-25.427 21.263a16.64 16.64 0 0 0-14.421 16.465V288a6 6 0 0 0 6 6h79.7a6 6 0 0 0 6-6v-5.887a16.641 16.641 0 0 0-14.422-16.465c-3.166-10.843-13.137-19.183-25.426-21.264V170.4h5.255a13.719 13.719 0 0 0 12.666-8.491h26.491l-24.473 49.237a6 6 0 0 0-4.344 5.763c0 19.488 16.886 35.342 37.642 35.342s37.639-15.851 37.639-35.34a6 6 0 0 0-4.344-5.763zm-151.773 29.1c-11.862 0-21.868-7.368-24.784-17.342h49.568c-2.916 9.979-12.922 17.347-24.784 17.347zm19.78-29.342h-39.561l19.781-39.8zm68.676 66.573a4.635 4.635 0 0 1 4.628 4.521h-67.694a4.635 4.635 0 0 1 4.628-4.516zm-10.833-12h-36.772c3.353-5.7 10.368-9.606 18.386-9.606s15.033 3.908 18.386 9.611zM197.255 158.4h-22.51a1.7 1.7 0 1 1 0-3.4h22.51a1.7 1.7 0 1 1 0 3.4zm47.982 12.713 19.781 39.8h-39.561zm0 69.138c-11.862 0-21.868-7.368-24.784-17.342h49.568c-2.916 9.976-12.921 17.344-24.784 17.344z"/><path d="M460 187v139.867a34 34 0 0 1-34 34H214.919c-22.216 0-38.242 8.9-47.633 26.44-7.524 14.054-9.082 30.727-10.113 41.76-.1 1.129-.209 2.241-.315 3.293-9.807-5.493-28.788-20.387-34.972-55.385a19.72 19.72 0 0 0-19.61-16.108H86a34 34 0 0 1-34-34v-215.89a34 34 0 0 1 34-34h340a34 34 0 0 1 34 34V147a6 6 0 0 0 6 6 6 6 0 0 0 6-6v-36.023a46 46 0 0 0-46-46H86a46 46 0 0 0-46 46v215.89a46 46 0 0 0 46 46h16.276a7.84 7.84 0 0 1 7.793 6.2c8.831 49.983 41.513 64.661 48.023 67.113a6.092 6.092 0 0 0 3.108.849 6.352 6.352 0 0 0 .918-.067c1.533-.227 4.274-1.211 5.408-5.256a72.965 72.965 0 0 0 1.595-11.519c2.591-27.73 8.481-57.316 45.8-57.316H426a46 46 0 0 0 46-46V187a6 6 0 0 0-6-6 6 6 0 0 0-6 6z"/></svg>