<svg height="512" width="512" xmlns="http://www.w3.org/2000/svg" data-name="Layer 1"><path d="M126.065 114.156h97.641a6 6 0 0 0 0-12h-97.641a6 6 0 0 0 0 12zM96.86 114.156h7.463a6 6 0 0 0 0-12H96.86a6 6 0 0 0 0 12zM126.065 157.473h97.641a6 6 0 0 0 0-12h-97.641a6 6 0 0 0 0 12zM96.86 157.473h7.463a6 6 0 0 0 0-12H96.86a6 6 0 0 0 0 12zM126.065 200.789h97.641a6 6 0 1 0 0-12h-97.641a6 6 0 0 0 0 12zM96.86 200.789h7.463a6 6 0 0 0 0-12H96.86a6 6 0 0 0 0 12zM126.065 244.105h97.641a6 6 0 0 0 0-12h-97.641a6 6 0 1 0 0 12zM96.86 244.105h7.463a6 6 0 1 0 0-12H96.86a6 6 0 1 0 0 12zM126.065 282.422h97.641a6 6 0 1 0 0-12h-97.641a6 6 0 0 0 0 12zM96.86 282.422h7.463a6 6 0 0 0 0-12H96.86a6 6 0 0 0 0 12zM252.754 441.409c14.4 0 26.108-11.056 26.108-24.646a6 6 0 0 0-3.149-5.28l-12.146-27.906a43.844 43.844 0 0 0 26.314-3.737h2.445v49.9h-1a17.542 17.542 0 0 0-17.542 17.543v5.007a6 6 0 0 0 6 6l37.088.012a6 6 0 0 0 6-6v-5.015a17.562 17.562 0 0 0-17.537-17.542h-1.007V379.84h2.168a43.876 43.876 0 0 0 26.316 3.731l-12.148 27.912a6 6 0 0 0-3.148 5.28c0 13.59 11.712 24.646 26.107 24.646s26.108-11.056 26.108-24.646a6 6 0 0 0-3.149-5.28l-17.458-40.11a6.459 6.459 0 0 0-8.424-2.973l-1.786.835a31.782 31.782 0 0 1-28.177-.7 6 6 0 0 0-2.807-.7h-3.6v-2.813a6 6 0 0 0-12 0v2.813h-3.88a6 6 0 0 0-2.807.7 31.777 31.777 0 0 1-28.178.7l-1.787-.834a6.259 6.259 0 0 0-8.426 2.969L229.8 411.483a6 6 0 0 0-3.149 5.28c-.005 13.59 11.706 24.646 26.103 24.646zm90.867-12a14.423 14.423 0 0 1-12.416-6.646h24.833a14.425 14.425 0 0 1-12.417 6.646zm0-40.607 9.56 21.961h-19.118zm-38.292 52.947a5.552 5.552 0 0 1 5.453 4.555l-24.912-.004a5.546 5.546 0 0 1 5.454-4.552zM252.754 388.8l9.558 21.961H243.2zm12.417 33.961a14.923 14.923 0 0 1-24.834 0zM69.507 120.444a6 6 0 0 0 6-6v-3.6a6 6 0 1 0-12 0v3.6a6 6 0 0 0 6 6zM69.507 223.029a6 6 0 0 0 6-6v-82.507a6 6 0 1 0-12 0v82.507a6 6 0 0 0 6 6zM281.254 291.374a12.927 12.927 0 0 0 7.158 2.166 13.141 13.141 0 0 0 2.624-.266 12.936 12.936 0 0 0 8.264-5.574l18.6-28.107C398.539 243.41 459.138 175.754 465.729 94l6-77.533a6 6 0 0 0-8.6-5.861l-69.908 33.9a6 6 0 0 0-2.883 3l-12.65 29.051-14.749-10.232a6 6 0 0 0-7.3.352c-24.626 20.865-42.97 48.939-53.049 81.184a196.283 196.283 0 0 0-5.136 95.429l-19.877 30.04a13.02 13.02 0 0 0 3.675 18.044zm32.791-139.933c8.921-28.538 24.745-53.539 45.9-72.59l16.91 11.731a6 6 0 0 0 8.92-2.534l14.677-33.708 58.5-28.372-5.19 67.091c-5.827 72.27-56.853 132.77-126.189 151.9l99-149.619a13.024 13.024 0 0 0-21.724-14.374l-97.6 147.505a183.493 183.493 0 0 1 6.796-77.03zm-26.458 128.511L414.3 88.445a1.024 1.024 0 1 1 1.708 1.13L289.29 281.079a1.02 1.02 0 0 1-1.414.288 1.02 1.02 0 0 1-.288-1.414z"/><path d="M412.185 489.909h-1.568a18.715 18.715 0 0 1-16.909-18.609v-99.9a51.276 51.276 0 0 0-51.275-51.275h-75.121V205a6 6 0 0 0-6-6 6 6 0 0 0-6 6v115.127h-85.967a45.9 45.9 0 0 0-45.9 45.9v19.706c0 19.438-15.3 35.794-34.737 36.254A35.633 35.633 0 0 1 52.255 386.4V63.089a25.152 25.152 0 0 1 4.086 2.411c3.671 2.473 8.239 5.551 16.791 5.551s13.121-3.082 16.792-5.551c3.018-2.034 5.2-3.5 10.087-3.5s7.069 1.469 10.088 3.5c3.671 2.473 8.24 5.551 16.793 5.551s13.122-3.078 16.794-5.551c3.019-2.034 5.2-3.5 10.088-3.5s7.07 1.469 10.088 3.5c3.671 2.473 8.241 5.551 16.793 5.551s13.122-3.078 16.794-5.551c3.019-2.034 5.2-3.5 10.089-3.5s7.071 1.469 10.092 3.5c3.672 2.473 8.241 5.55 16.8 5.55s13.123-3.077 16.795-5.55a25.179 25.179 0 0 1 4.092-2.41V165a6 6 0 0 0 6 6 6 6 0 0 0 6-6V55.993a5.98 5.98 0 0 0-5.927-6c-8.6-.018-13.185 3.07-16.867 5.55-3.021 2.035-5.2 3.5-10.092 3.5s-7.071-1.469-10.092-3.5c-3.672-2.473-8.241-5.55-16.795-5.55s-13.122 3.078-16.794 5.551c-3.018 2.034-5.2 3.5-10.089 3.5s-7.069-1.469-10.088-3.5c-3.671-2.473-8.24-5.551-16.793-5.551s-13.122 3.078-16.794 5.551c-3.018 2.034-5.2 3.5-10.088 3.5s-7.07-1.469-10.088-3.5c-3.671-2.473-8.241-5.551-16.793-5.551s-13.127 3.078-16.798 5.551c-3.019 2.034-5.2 3.5-10.087 3.5s-7.068-1.469-10.086-3.5c-3.681-2.48-8.265-5.569-16.864-5.551a5.981 5.981 0 0 0-5.927 6V386.4A47.648 47.648 0 0 0 87.85 434l115.4-.192v16.829a51.334 51.334 0 0 0 51.276 51.276l157.876.084a6.08 6.08 0 0 0 5.941-6.939 6.143 6.143 0 0 0-6.158-5.149zM203.245 421.8H119.62a47.483 47.483 0 0 0 15.825-35.4v-20.373a33.9 33.9 0 1 1 67.8 0zm51.276 68.105a39.32 39.32 0 0 1-39.276-39.276v-84.602a45.788 45.788 0 0 0-14.986-33.9h142.174a39.32 39.32 0 0 1 39.275 39.273v99.9a30.535 30.535 0 0 0 6.3 18.605z"/></svg>