<svg width="19" height="16" fill="none" xmlns="http://www.w3.org/2000/svg"><path d="M16.948 4.594a7.818 7.818 0 0 0 1.828-1.899 6.92 6.92 0 0 1-2.109.563 3.607 3.607 0 0 0 1.617-2.04 7.797 7.797 0 0 1-2.32.915 3.692 3.692 0 0 0-2.707-1.16 3.691 3.691 0 0 0-3.691 3.691c0 .281.035.563.105.844A10.71 10.71 0 0 1 2.042 1.64a3.59 3.59 0 0 0-.492 1.863c0 1.266.633 2.39 1.652 3.058-.597-.035-1.195-.175-1.687-.457v.036a3.696 3.696 0 0 0 2.953 3.62c-.281.071-.633.141-.95.141-.245 0-.456-.035-.702-.07.457 1.477 1.828 2.531 3.445 2.566a7.422 7.422 0 0 1-4.57 1.582c-.317 0-.598-.035-.88-.07 1.618 1.055 3.551 1.652 5.66 1.652 6.786 0 10.477-5.59 10.477-10.476v-.492Z" fill="#fff"/></svg>