<svg id="Layer_1" data-name="Layer 1" xmlns="http://www.w3.org/2000/svg" viewBox="0 0 249.43 54.51"><defs><style>.cls-1{fill:#333132}.cls-2{fill:#b89b5e}</style></defs><path class="cls-1" d="M74.53 39.66c0 2.74-2 4.62-5 4.62h-4.78V30.51h8.56v2.38h-6v2.3h2.16c3.11 0 5.06 1.73 5.06 4.47Zm-2.58 0c0-1.58-1-2.25-2.59-2.25h-2v4.49h2c1.55 0 2.64-.69 2.64-2.24ZM94.83 37.4a7.13 7.13 0 0 1-14.17 1.1H79v5.78h-2.6V30.51H79v5.76h1.68a7.13 7.13 0 0 1 14.15 1.13Zm-2.7 0a4.45 4.45 0 1 0-4.43 4.66 4.5 4.5 0 0 0 4.43-4.66ZM106.66 35.13c0 2.74-2 4.47-5 4.47h-2.21v4.68h-2.57V30.51h4.74c3.09 0 5.04 1.89 5.04 4.62Zm-2.58 0c0-1.55-1-2.24-2.6-2.24h-2v4.49h2c1.52 0 2.6-.67 2.6-2.25ZM122.49 37.4a7.13 7.13 0 1 1-7.13-7.09 7 7 0 0 1 7.13 7.09Zm-2.7 0a4.45 4.45 0 1 0-4.43 4.66 4.5 4.5 0 0 0 4.43-4.66ZM141.19 44.28h-2.58V32.89h-6v11.39H130V30.51h11.17ZM157.5 37.4a7.13 7.13 0 1 1-7.12-7.09 7 7 0 0 1 7.12 7.09Zm-2.69 0a4.45 4.45 0 1 0-4.43 4.66 4.5 4.5 0 0 0 4.43-4.66ZM174.3 34.15a3.07 3.07 0 0 1-2.39 2.85 3.35 3.35 0 0 1 3.09 3.29c0 2.76-2.44 4.19-5.21 4.19s-5.1-1.77-5.1-4.25h2.68c0 1.3 1.51 1.81 2.42 1.81s2.54-.41 2.54-1.89c0-1.14-1-2-3.11-2.07v-1.9c2.14-.12 2.44-1.17 2.44-1.86a1.7 1.7 0 0 0-1.87-1.51 1.8 1.8 0 0 0-2 1.75h-2.68c0-2.68 2.13-4.19 4.67-4.19s4.52 1.55 4.52 3.78ZM186.64 41.63h-6.81l-1.15 2.65H176l6.14-13.77h2.3l6.13 13.77h-2.74Zm-.91-2.11-2.5-5.84-2.5 5.84ZM214.41 45.64h-2.56v-1.36h-19.76V30.51h2.58V41.9h6V30.51h2.58V41.9h6V30.51h2.58V41.9h2.58ZM218.59 39.76l7.16-9.25h2v13.77h-2.58v-9.23L218 44.28h-2V30.51h2.58ZM239.35 32.89h-3.54v11.39h-2.58V32.89h-3.52v-2.38h9.64ZM249.9 41.9v2.38h-8.58V30.51h8.41v2.38h-5.83v3.3h4.43v2.33h-4.43v3.38Z" transform="translate(-.57 -18.59)"/><path class="cls-2" d="m66.69 57.41 5-6.47h1.39v9.63h-1.8v-6.45l-5 6.45h-1.39v-9.63h1.8ZM82.48 50.94v9.63h-1.81v-4h-4.13v4h-1.8v-9.63h1.8v4h4.13v-4ZM90.6 52.6h-2.48v8h-1.8v-8h-2.47v-1.66h6.75ZM98 58.91v1.66h-6v-9.63h5.88v1.66h-4.11v2.31h3.1v1.63h-3.1v2.37ZM108 60.57h-1.8v-8h-4v5.84c0 1.86-.88 2.21-2 2.21a3.11 3.11 0 0 1-1.37-.24v-1.53a2 2 0 0 0 .94.25.63.63 0 0 0 .58-.69v-7.47H108ZM118.3 60.57h-1.8v-8h-4v5.84c0 1.86-.88 2.21-2 2.21a3.06 3.06 0 0 1-1.36-.24v-1.53a2 2 0 0 0 .94.25c.42 0 .58-.42.58-.69v-7.47h7.58ZM126 58.91v1.66h-6v-9.63h5.88v1.66h-4.08v2.31h3.1v1.63h-3.1v2.37ZM130.48 56.37l-1.23 1.38v2.82h-1.86v-9.63h1.86v4.4l3.83-4.4h2.23l-3.7 4.17 4.12 5.46h-2.09ZM143 52.6h-2.48v8h-1.8v-8h-2.46v-1.66H143ZM152.88 50.94l-5.26 9.63h-2l1.76-3.23-3.5-6.4h2l2.5 4.58 2.5-4.58ZM159.2 58.71h-4.76l-.8 1.86h-1.91l4.27-9.63h1.61l4.28 9.63H160Zm-.63-1.47-1.75-4.09-1.75 4.09ZM171.63 60.57h-1.81v-8h-4v5.84c0 1.86-.89 2.21-2 2.21a3.06 3.06 0 0 1-1.36-.24v-1.53a1.93 1.93 0 0 0 .93.25.63.63 0 0 0 .58-.69v-7.47h7.59ZM180.12 57.34a3.2 3.2 0 0 1-3.53 3.23h-3.31v-9.63h1.8v3.27h1.51c2.16 0 3.53 1.21 3.53 3.13Zm-1.81 0c0-1.1-.73-1.57-1.81-1.57h-1.42v3.14h1.42c1.08 0 1.81-.49 1.81-1.57ZM189.16 50.94v9.63h-1.8v-4h-4.13v4h-1.81v-9.63h1.81v4h4.13v-4ZM197.65 57.34a3.19 3.19 0 0 1-3.52 3.23h-3.32v-9.63h1.8v3.27h1.52c2.16 0 3.52 1.21 3.52 3.13Zm-1.8 0c0-1.1-.73-1.57-1.82-1.57h-1.42v3.14H194c1.12 0 1.85-.49 1.85-1.57Zm5.17-6.4v9.63h-1.8v-9.63ZM208.8 60.57l-2.25-3.32-2.23 3.32h-2.13l3.29-4.88-3.22-4.75h2.12l2.16 3.18 2.13-3.18h2.12l-3.19 4.75 3.32 4.88ZM223.81 60.57H222v-8h-4.2v8H216v-9.63h7.8ZM232.3 54.17c0 1.91-1.36 3.12-3.52 3.12h-1.52v3.28h-1.8v-9.63h3.32a3.19 3.19 0 0 1 3.52 3.23Zm-1.8 0c0-1.09-.73-1.57-1.82-1.57h-1.42v3.14h1.42c1.09 0 1.82-.47 1.82-1.57ZM239 58.71h-4.76l-.8 1.86h-1.92l4.3-9.63h1.61l4.28 9.63h-1.91Zm-.64-1.47-1.74-4.09-1.75 4.09ZM250 57.85c0 1.61-1.1 2.72-3.51 2.72h-3.66v-9.63h3.51c2 0 3 1.11 3 2.39a2 2 0 0 1-1.34 1.91 2.63 2.63 0 0 1 2 2.61Zm-5.37-5.33v2.23h1.56c.91 0 1.33-.47 1.33-1.17s-.45-1.06-1.33-1.06Zm3.57 5c0-.84-.57-1.43-1.85-1.43h-1.72V59h1.78c1.22 0 1.79-.58 1.79-1.43Z" transform="translate(-.57 -18.59)"/><path class="cls-1" d="M34.49 33.84v9.92l1.71-1.47c2.16-1.82 4.25-3.42 6.11-4.77v-3.68ZM21.68 33.84v25.88l.22.37c1.4-4 4.25-7.92 7.6-11.51V33.84ZM8.88 33.84v19a13.16 13.16 0 0 1 3.47-2.68l.56-.27.44.42c1.28 1.23 2.38 2.34 3.34 3.37V33.84Zm0 0" transform="translate(-.57 -18.59)"/><path class="cls-1" d="M3.99 8.88h42.07v4.73H3.99zM0 0h50.04v7.22H0z"/><path class="cls-2" d="M7.15 59.12s10.16 5.71 16.51 14c0 0 4.79-20.68 30.8-27.74L49.07 34s-23.82 14.66-27 28c0 0-1.71-3.72-9.33-11 0 0-5.59 2.77-5.59 8.18Zm0 0" transform="translate(-.57 -18.59)"/></svg>