<svg width="54" height="55" fill="none" xmlns="http://www.w3.org/2000/svg"><path d="M33.92 15.25v9.92l1.71-1.47c2.16-1.82 4.25-3.42 6.11-4.77v-3.68h-7.82Zm-12.81 0v25.88l.22.37c1.4-4 4.25-7.92 7.6-11.51V15.25h-7.82Zm-12.8 0v19a13.16 13.16 0 0 1 3.47-2.68l.56-.27.44.42c1.28 1.23 2.38 2.34 3.34 3.37V15.25H8.31ZM3.99 8.88h42.07v4.73H3.99V8.88ZM0 0h50.04v7.22H0V0Z" fill="#333132"/><path d="M6.58 40.53s10.16 5.71 16.51 14c0 0 4.79-20.68 30.8-27.74L48.5 15.41s-23.82 14.66-27 28c0 0-1.71-3.72-9.33-11 0 0-5.59 2.77-5.59 8.18v-.06Z" fill="#B89B5E"/></svg>